HIERARCHY
ROOT Hips
{
	OFFSET -0.001795 -0.223333 0.028219
	CHANNELS 6 Xposition Yposition Zposition Zrotation Yrotation Xrotation 
	JOINT LeftUpLeg
	{
		OFFSET 0.069520 -0.091406 -0.006815
		CHANNELS 3 Zrotation Yrotation Xrotation
		JOINT LeftLeg
		{
			OFFSET 0.034277 -0.375199 -0.004496
			CHANNELS 3 Zrotation Yrotation Xrotation
			JOINT LeftFoot
			{
				OFFSET -0.013596 -0.397961 -0.043693
				CHANNELS 3 Zrotation Yrotation Xrotation
				JOINT LeftToe
				{
					OFFSET 0.026358 -0.055791 0.119288
					CHANNELS 3 Zrotation Yrotation Xrotation
					End Site
					{
						OFFSET 0.000000 0.000000 0.000000
					}
				}
			}
		}
	}
	JOINT RightUpLeg
	{
		OFFSET -0.067670 -0.090522 -0.004320
		CHANNELS 3 Zrotation Yrotation Xrotation
		JOINT RightLeg
		{
			OFFSET -0.038290 -0.382569 -0.008850
			CHANNELS 3 Zrotation Yrotation Xrotation
			JOINT RightFoot
			{
				OFFSET 0.015774 -0.398415 -0.042312
				CHANNELS 3 Zrotation Yrotation Xrotation
				JOINT RightToe
				{
					OFFSET -0.025372 -0.048144 0.123348
					CHANNELS 3 Zrotation Yrotation Xrotation
					End Site
					{
						OFFSET 0.000000 0.000000 0.000000
					}
				}
			}
		}
	}
	JOINT Spine
	{
		OFFSET -0.002533 0.108963 -0.026696
		CHANNELS 3 Zrotation Yrotation Xrotation
		JOINT Spine1
		{
			OFFSET 0.005487 0.135180 0.001092
			CHANNELS 3 Zrotation Yrotation Xrotation
			JOINT Spine2
			{
				OFFSET 0.001457 0.052922 0.025425
				CHANNELS 3 Zrotation Yrotation Xrotation
				JOINT Neck
				{
					OFFSET -0.002778 0.213870 -0.042857
					CHANNELS 3 Zrotation Yrotation Xrotation
					JOINT Head
					{
						OFFSET 0.005152 0.064970 0.051349
						CHANNELS 3 Zrotation Yrotation Xrotation
						End Site
						{
							OFFSET 0.000000 0.000000 0.000000
						}
					}
				}
				JOINT LeftShoulder
				{
					OFFSET 0.078845 0.121749 -0.034090
					CHANNELS 3 Zrotation Yrotation Xrotation
					JOINT LeftArm
					{
						OFFSET 0.090977 0.030469 -0.008868
						CHANNELS 3 Zrotation Yrotation Xrotation
						JOINT LeftForeArm
						{
							OFFSET 0.259612 -0.012772 -0.027456
							CHANNELS 3 Zrotation Yrotation Xrotation
							JOINT LeftHand
							{
								OFFSET 0.249234 0.008986 -0.001171
								CHANNELS 3 Zrotation Yrotation Xrotation
								End Site
								{
									OFFSET 0.000000 0.000000 0.000000
								}
							}
						}
					}
				}
				JOINT RightShoulder
				{
					OFFSET -0.081759 0.118833 -0.038615
					CHANNELS 3 Zrotation Yrotation Xrotation
					JOINT RightArm
					{
						OFFSET -0.096012 0.032551 -0.009143
						CHANNELS 3 Zrotation Yrotation Xrotation
						JOINT RightForeArm
						{
							OFFSET -0.253742 -0.013329 -0.021401
							CHANNELS 3 Zrotation Yrotation Xrotation
							JOINT RightHand
							{
								OFFSET -0.255298 0.007772 -0.005559
								CHANNELS 3 Zrotation Yrotation Xrotation
								End Site
								{
									OFFSET 0.000000 0.000000 0.000000
								}
							}
						}
					}
				}
			}
		}
	}
}
MOTION
Frames: 12
Frame Time: 0.050000
-0.009196 0.942555 0.032917 0.591355 -1.914732 8.695684 2.107119 -0.466619 -5.434578 1.036331 0.231823 -7.809901 4.441168 11.105869 8.888428 0.000000 0.000000 0.000000 -1.089215 1.098637 -11.458654 -0.439439 -0.225862 -6.280049 14.891364 20.917226 16.325672 0.000000 0.000000 0.000000 9.480904 -1.792704 11.512656 4.092769 -2.219755 5.231709 -1.553261 5.001396 2.241678 15.083029 -6.464458 -20.026118 0.000000 0.000000 0.000000 -15.514490 -25.497878 10.558746 -24.203174 -10.499716 -0.689770 -23.239802 -82.278474 23.013328 0.000000 0.000000 0.000000 25.519351 23.035491 13.955325 43.158817 33.259312 7.284234 8.282298 45.438004 5.501016 0.000000 0.000000 0.000000 
-0.010401 0.942509 0.032833 0.632828 -1.510465 8.289461 2.107471 -0.448679 -5.205907 1.135168 0.213358 -7.514527 4.207675 10.764638 9.055514 0.000000 0.000000 0.000000 -1.029574 1.063412 -11.084764 -0.530601 -0.216476 -6.146524 14.956270 20.886391 16.548820 0.000000 0.000000 0.000000 9.533907 -1.784092 11.438057 4.192488 -2.294609 5.364589 -1.774304 4.921431 2.325357 15.237110 -6.529412 -20.102059 0.000000 0.000000 0.000000 -14.855890 -25.708929 10.537006 -22.727113 -11.456953 -0.535479 -16.749552 -82.698797 17.373918 0.000000 0.000000 0.000000 25.597233 22.751034 13.832554 43.517296 33.564395 7.469722 8.160327 45.231565 5.432708 0.000000 0.000000 0.000000 
-0.011407 0.942415 0.032583 0.614550 -1.141612 8.181131 2.231478 -0.443032 -5.148291 0.999789 0.214770 -7.430439 4.169081 10.677936 8.785107 0.000000 0.000000 0.000000 -0.918659 1.032946 -10.722240 -0.394381 -0.238635 -6.514173 14.988510 20.634229 16.953854 0.000000 0.000000 0.000000 9.505193 -1.761985 11.263349 4.196349 -2.303968 5.303774 -1.819048 5.047314 2.363330 15.612099 -6.708408 -20.147801 0.000000 0.000000 0.000000 -14.485945 -26.156113 10.647398 -21.595994 -12.078578 -0.437922 -14.209567 -83.392876 15.239610 0.000000 0.000000 0.000000 25.985654 22.390429 13.797353 43.031388 33.565617 7.307063 7.949123 44.851987 5.313176 0.000000 0.000000 0.000000 
-0.012243 0.942315 0.032115 0.757456 -0.867565 8.343464 2.221478 -0.453595 -5.271992 0.904121 0.209371 -7.218543 4.003814 10.383318 8.616792 0.000000 0.000000 0.000000 -0.994470 1.030198 -10.740523 -0.331148 -0.252033 -6.756420 15.026253 20.628283 17.088637 0.000000 0.000000 0.000000 9.573664 -1.722143 10.773198 4.075796 -2.250554 5.371834 -2.097240 4.847169 2.171770 15.808468 -6.845386 -20.004801 0.000000 0.000000 0.000000 -13.486385 -26.471565 10.684137 -20.922739 -12.937270 -0.332494 -15.421313 -83.954850 16.478478 0.000000 0.000000 0.000000 25.867398 22.400690 13.770919 43.003653 33.775225 7.402531 7.848484 44.973293 5.287058 0.000000 0.000000 0.000000 
-0.012868 0.941991 0.031456 0.893778 -0.772482 8.290125 2.041305 -0.453042 -5.233235 0.977921 0.210940 -7.330400 3.801272 10.073282 8.774462 0.000000 0.000000 0.000000 -0.899698 1.013848 -10.526027 -0.683580 -0.251864 -7.075426 15.216449 20.717111 17.415460 0.000000 0.000000 0.000000 9.500253 -1.694515 10.639611 4.033469 -2.233184 5.382145 -2.269542 4.878056 2.088038 15.944102 -6.944160 -19.861134 0.000000 0.000000 0.000000 -12.723717 -26.735473 10.688621 -20.396359 -13.626255 -0.249417 -20.783693 -84.664914 21.543779 0.000000 0.000000 0.000000 25.878875 22.355378 13.786221 42.894664 33.989084 7.455136 8.072799 45.109830 5.406467 0.000000 0.000000 0.000000 
-0.013271 0.941991 0.030695 1.035037 -0.684718 8.448762 1.805467 -0.467991 -5.383189 1.187081 0.196740 -7.213749 3.444928 9.348514 8.213509 0.000000 0.000000 0.000000 -1.058269 1.029473 -10.775995 -0.585165 -0.249986 -6.940754 14.887500 20.404593 17.074853 0.000000 0.000000 0.000000 9.598513 -1.694683 10.484782 3.911436 -2.138012 4.893919 -2.437544 4.974283 2.158766 16.001365 -7.029812 -19.612303 0.000000 0.000000 0.000000 -11.841502 -26.931855 10.641677 -19.709933 -14.831677 -0.124832 -19.904974 -84.711749 20.711221 0.000000 0.000000 0.000000 25.670185 22.099344 13.642248 43.407207 34.158055 7.635063 8.257979 45.226854 5.530198 0.000000 0.000000 0.000000 
-0.013473 0.941877 0.029872 1.226623 -0.547821 8.547654 1.689330 -0.480813 -5.525249 1.029355 0.195083 -7.022961 3.198928 8.955914 8.317755 0.000000 0.000000 0.000000 -1.313701 1.047875 -11.123801 -0.611517 -0.236324 -6.650504 14.772607 20.243079 17.038229 0.000000 0.000000 0.000000 9.529060 -1.685090 10.440963 4.048771 -2.193919 4.633165 -2.629427 5.000712 2.162499 15.910133 -7.021994 -19.384847 0.000000 0.000000 0.000000 -11.280246 -26.999908 10.573448 -19.400331 -16.523306 0.065185 -5.081561 -84.183667 7.053846 0.000000 0.000000 0.000000 25.376521 22.078546 13.622401 43.509113 34.485154 7.785376 8.654117 46.364391 5.899432 0.000000 0.000000 0.000000 
-0.013528 0.941898 0.029046 1.282434 -0.316365 8.570527 1.477776 -0.505361 -5.799565 1.175709 0.166650 -6.538786 2.885744 8.308771 7.820323 0.000000 0.000000 0.000000 -1.522328 1.052174 -11.310723 -0.439389 -0.224591 -6.200884 14.107717 19.914388 15.964424 0.000000 0.000000 0.000000 9.535909 -1.641722 10.047833 4.026131 -2.201878 4.840945 -2.883041 5.318631 1.853419 15.764291 -7.039551 -18.778599 0.000000 0.000000 0.000000 -10.391981 -27.587125 10.633116 -19.127647 -18.542883 0.308420 7.663590 -82.763559 -4.493303 0.000000 0.000000 0.000000 25.152226 21.694108 13.498850 43.760602 34.481783 7.839814 8.769583 47.919260 6.260879 0.000000 0.000000 0.000000 
-0.013467 0.941846 0.028295 1.307053 -0.005888 8.574676 1.548718 -0.523947 -6.053194 0.833411 0.171436 -6.260121 2.636053 7.892453 7.817328 0.000000 0.000000 0.000000 -1.567961 1.045985 -11.292350 -0.385379 -0.216971 -5.957820 13.810293 19.610739 15.690816 0.000000 0.000000 0.000000 9.583609 -1.635476 9.912227 3.964801 -2.135502 4.237639 -2.892975 5.192106 2.245088 15.288599 -6.849544 -18.504432 0.000000 0.000000 0.000000 -10.064794 -27.655049 10.629584 -18.988680 -21.014354 0.557282 18.816607 -80.117372 -13.662351 0.000000 0.000000 0.000000 24.996406 21.689144 13.470063 43.839065 34.484364 7.835480 9.726810 49.449767 6.971068 0.000000 0.000000 0.000000 
-0.013360 0.941813 0.027702 1.417892 0.730979 8.554506 1.451691 -0.547439 -6.322495 0.810212 0.158633 -5.924540 2.159663 7.129398 7.889857 0.000000 0.000000 0.000000 -1.643493 1.048182 -11.431342 -0.535818 -0.187856 -5.464417 13.079132 19.152238 14.639707 0.000000 0.000000 0.000000 9.680708 -1.610655 9.530257 3.963261 -2.155789 4.312539 -3.210101 5.291807 2.123131 15.252663 -6.893787 -18.066650 0.000000 0.000000 0.000000 -9.799323 -28.304719 10.793999 -19.330669 -22.320755 0.762793 20.851052 -78.240627 -15.028312 0.000000 0.000000 0.000000 24.160209 21.091930 13.077446 44.484111 34.516246 8.019544 11.108405 51.240786 8.041378 0.000000 0.000000 0.000000 
-0.013236 0.941686 0.027509 1.424200 1.423713 8.474907 1.477366 -0.560220 -6.488509 0.803659 0.149088 -5.684431 1.876450 6.693592 7.915182 0.000000 0.000000 0.000000 -1.620746 1.030626 -11.270089 -0.628290 -0.171040 -5.210091 12.687651 18.753700 14.283687 0.000000 0.000000 0.000000 9.926993 -1.609695 9.225016 3.703471 -2.032303 4.244447 -3.127717 5.054695 2.193569 14.915118 -6.736909 -17.882556 0.000000 0.000000 0.000000 -10.634342 -27.999150 10.740871 -19.259448 -21.749295 0.702856 16.877952 -78.552160 -11.840791 0.000000 0.000000 0.000000 23.845232 20.807913 12.845335 44.595940 34.386941 7.997424 13.202306 52.951444 9.457959 0.000000 0.000000 0.000000 
-0.013142 0.941606 0.027745 1.544055 2.396435 8.523591 1.438016 -0.586613 -6.797116 0.756906 0.146478 -5.558841 1.495628 6.079382 7.843564 0.000000 0.000000 0.000000 -1.762291 1.009492 -11.195799 -0.686873 -0.155364 -4.959880 11.641724 17.661263 13.208327 0.000000 0.000000 0.000000 10.092017 -1.591171 8.801160 3.591234 -1.974865 3.978248 -3.187866 5.233214 2.151649 14.838435 -6.741119 -17.460066 0.000000 0.000000 0.000000 -12.063491 -27.864768 10.709636 -19.733400 -19.849673 0.574937 2.805229 -80.626771 -0.499085 0.000000 0.000000 0.000000 23.778602 19.854139 12.450938 44.361725 33.464892 7.524213 17.219244 54.861444 12.115003 0.000000 0.000000 0.000000 
